<?xml version="1.0" standalone="no"?>
<!DOCTYPE svg PUBLIC "-//W3C//DTD SVG 20010904//EN"
 "http://www.w3.org/TR/2001/REC-SVG-20010904/DTD/svg10.dtd">
<svg version="1.0" xmlns="http://www.w3.org/2000/svg"
 width="260.000000pt" height="260.000000pt" viewBox="0 0 260.000000 260.000000"
 preserveAspectRatio="xMidYMid meet">
<metadata>
Created by potrace 1.14, written by Peter Selinger 2001-2017
</metadata>
<g transform="translate(0.000000,260.000000) scale(0.100000,-0.100000)"
fill="#000000" stroke="none">
<path d="M1101 2584 c-273 -43 -545 -185 -735 -385 -336 -353 -449 -842 -300
-1299 91 -280 274 -519 523 -685 326 -217 735 -272 1111 -149 280 91 519 274
685 523 217 326 272 735 149 1111 -91 280 -274 519 -523 685 -265 176 -592
248 -910 199z m233 -762 c26 -7 31 -15 42 -70 16 -76 41 -128 105 -215 52 -71
63 -76 127 -58 22 7 43 6 59 0 18 -6 36 -6 56 0 40 14 53 4 24 -20 -14 -10
-27 -30 -29 -44 -6 -32 -3 -32 170 -39 106 -4 139 -8 165 -23 l32 -19 -1 -95
c-1 -123 -29 -223 -101 -360 -60 -114 -161 -271 -178 -276 -6 -2 -17 18 -25
44 -14 47 -8 137 18 285 5 27 7 50 4 53 -3 2 -5 55 -6 116 -1 89 -4 113 -16
119 -8 4 -25 12 -37 18 -13 7 -32 12 -43 12 -11 0 -20 5 -20 10 0 18 -73 7
-110 -16 -19 -12 -71 -34 -115 -48 -68 -22 -84 -32 -103 -62 -21 -32 -27 -35
-55 -30 -18 4 -47 9 -64 13 -18 3 -33 11 -33 19 0 7 -13 29 -30 47 -16 19 -30
40 -30 46 0 6 -11 16 -25 21 -14 5 -25 18 -25 27 0 10 -10 24 -21 31 -32 20
-10 33 36 22 22 -5 58 -10 79 -10 43 0 146 29 146 41 0 4 -15 18 -32 30 -18
13 -39 31 -46 41 -8 11 -25 30 -38 43 -13 13 -24 29 -24 34 0 6 -6 14 -13 18
-7 4 -23 25 -36 46 -12 20 -26 37 -31 37 -5 0 -18 15 -29 34 -34 55 -63 68
-160 71 -71 3 -104 -2 -191 -26 -120 -34 -255 -50 -248 -29 9 27 311 120 523
160 102 19 265 21 329 2z"/>
<path d="M990 1805 c-124 -25 -413 -104 -470 -129 l-35 -15 38 -1 c21 0 55 9
77 20 21 11 74 29 117 40 43 12 107 31 143 42 53 17 91 21 214 22 l150 1 12
-25 c7 -14 15 -45 18 -70 7 -52 3 -47 -19 33 l-16 57 -105 0 c-91 0 -109 -3
-131 -20 -14 -11 -33 -20 -42 -20 -11 1 -8 5 9 15 l25 14 -27 1 c-16 0 -54 -9
-85 -19 -32 -11 -96 -30 -143 -42 -46 -12 -79 -24 -72 -27 6 -2 59 10 117 28
61 18 115 28 128 25 17 -5 19 -4 7 4 -13 9 -13 11 2 11 9 0 20 -4 23 -10 5 -8
56 -8 115 1 8 1 24 1 35 0 17 -1 18 -3 5 -11 -8 -5 -22 -10 -30 -10 -13 0 -13
1 0 11 12 8 12 10 1 7 -15 -4 -25 -38 -11 -38 4 0 24 7 44 15 43 18 48 12 9
-10 l-28 -16 35 6 35 5 -30 -14 c-21 -10 -25 -15 -12 -15 10 -1 27 4 38 9 30
16 22 3 -8 -15 -27 -15 -27 -15 -3 -9 14 4 32 8 40 11 8 2 -3 -6 -25 -18 -37
-19 -38 -20 -10 -15 17 2 39 7 50 11 11 3 5 -2 -12 -11 -18 -10 -33 -21 -33
-26 0 -11 7 -10 42 8 21 11 33 13 41 5 6 -6 9 -12 6 -14 -2 -2 -17 -13 -32
-24 -18 -14 -24 -24 -17 -28 7 -4 26 6 43 21 l32 29 -27 -31 c-34 -37 -35 -47
-5 -39 19 5 20 4 5 -5 -25 -16 -23 -33 2 -20 14 7 20 7 20 0 0 -5 -4 -10 -10
-10 -5 0 -10 -5 -10 -11 0 -7 9 -9 21 -6 17 5 18 3 7 -11 -11 -13 -10 -15 10
-10 19 5 21 4 11 -8 -9 -11 -9 -14 0 -14 7 0 9 -4 6 -10 -3 -6 1 -7 10 -3 13
5 14 7 3 14 -7 5 -8 9 -3 9 6 0 16 -4 24 -9 11 -7 10 -10 -4 -18 -12 -7 -14
-12 -6 -17 7 -4 20 -2 29 5 14 11 15 11 5 -1 -19 -21 -16 -29 10 -23 17 4 19
2 7 -6 -29 -20 -1 -21 51 -1 30 11 56 20 59 20 13 -1 -39 -24 -127 -56 -90
-33 -105 -36 -176 -31 -66 4 -76 3 -66 -9 7 -9 34 -15 73 -16 l61 -1 -65 -7
c-45 -4 -60 -8 -47 -14 9 -5 39 -6 65 -3 l47 5 -37 -11 c-21 -6 -38 -14 -38
-19 0 -11 13 -10 44 2 15 5 26 6 26 1 0 -5 -13 -12 -30 -16 -16 -4 -30 -11
-30 -16 0 -6 10 -7 23 -3 45 14 51 14 22 0 -31 -16 -28 -19 15 -17 14 1 32 11
41 21 15 18 18 18 23 3 4 -9 -1 -24 -10 -34 -15 -17 -15 -19 -1 -19 9 0 19 5
22 10 7 12 35 14 35 3 0 -5 -15 -18 -33 -30 -20 -15 -26 -23 -15 -23 9 0 23
-3 32 -6 9 -3 16 -1 16 6 0 6 -6 8 -12 4 -8 -4 -10 -3 -5 2 5 5 12 9 16 9 4 0
19 12 32 27 15 16 47 33 84 43 82 23 130 49 188 103 41 39 77 93 77 117 0 3
-10 5 -22 6 -23 0 -23 0 1 10 28 11 26 14 -11 23 -22 5 -26 3 -22 -9 4 -10 0
-15 -15 -15 -23 0 -29 15 -8 23 24 10 -21 7 -47 -3 -18 -6 -34 -6 -51 2 -32
14 -141 176 -155 228 -5 22 -14 57 -20 78 -10 38 -11 39 -74 50 -89 17 -163
13 -296 -13z m25 -55 c-3 -5 -11 -10 -16 -10 -6 0 -7 5 -4 10 3 6 11 10 16 10
6 0 7 -4 4 -10z"/>
<path d="M1170 1600 c-14 -11 -20 -20 -14 -20 7 0 22 9 35 20 31 25 12 26 -21
0z"/>
<path d="M1668 1326 l-42 -49 30 7 c16 3 45 8 64 11 l35 5 -32 -10 c-33 -10
-45 -30 -20 -30 7 0 35 7 61 16 26 9 50 14 53 11 3 -3 -14 -11 -36 -17 -50
-13 -45 -35 6 -25 19 3 42 9 50 12 11 4 14 2 9 -5 -4 -7 -16 -12 -27 -12 -10
0 -19 -4 -19 -10 0 -13 21 -13 54 0 37 14 32 2 -6 -16 l-33 -15 40 5 40 5 -39
-13 c-43 -14 -67 -44 -25 -31 13 4 36 13 50 20 l27 12 -1 -51 c0 -28 3 -67 6
-86 l7 -35 -10 33 c-6 17 -16 32 -22 32 -6 0 -8 -3 -5 -7 4 -3 2 -12 -4 -20
-6 -7 -8 -13 -4 -13 3 0 -10 -19 -29 -42 -31 -36 -46 -68 -31 -68 2 0 18 21
35 46 18 25 34 43 37 41 2 -3 -16 -33 -41 -67 -25 -34 -47 -74 -48 -89 -1 -14
-2 -35 -3 -46 0 -11 -4 -30 -9 -43 -4 -13 -5 -26 -3 -29 3 -3 27 36 52 87 25
51 49 90 52 87 3 -3 -20 -54 -52 -112 -31 -59 -54 -109 -52 -112 5 -4 66 95
106 172 11 22 20 36 21 32 0 -11 -52 -113 -94 -182 -19 -32 -32 -63 -29 -68 6
-10 61 81 120 196 36 68 50 87 33 42 -15 -39 -38 -83 -92 -173 -27 -45 -48
-90 -46 -100 5 -26 98 121 179 283 72 145 99 245 99 365 0 80 -20 89 -229 98
l-140 7 -43 -49z m231 9 c99 -17 121 -24 121 -35 0 -4 -18 -1 -41 7 -23 7 -94
20 -158 27 -88 10 -103 14 -61 15 30 0 93 -6 139 -14z m71 -371 c0 -4 -9 1
-20 11 -11 10 -20 23 -20 28 0 6 9 1 20 -11 11 -12 20 -24 20 -28z m-113 -53
c-29 -49 -54 -88 -56 -86 -5 6 91 175 100 175 4 0 -16 -40 -44 -89z"/>
<path d="M1260 1196 c-6 -8 -21 -17 -33 -19 -21 -4 -21 -4 -1 -6 11 0 29 8 39
19 10 11 16 20 13 20 -3 0 -11 -6 -18 -14z"/>
<path d="M1838 1158 c-33 -12 -38 -32 -5 -22 43 13 67 24 67 29 0 8 -32 5 -62
-7z"/>
<path d="M1230 1140 c-12 -8 -12 -10 5 -10 11 0 27 5 35 10 12 8 12 10 -5 10
-11 0 -27 -5 -35 -10z"/>
<path d="M1843 1128 c-18 -6 -33 -15 -33 -19 0 -5 2 -9 5 -9 12 0 75 29 75 34
0 7 -7 6 -47 -6z"/>
<path d="M1843 1098 c-31 -10 -45 -28 -23 -28 13 0 70 29 70 35 0 6 -8 5 -47
-7z"/>
<path d="M1838 1064 c-16 -8 -28 -19 -28 -24 0 -14 2 -13 40 15 37 28 31 33
-12 9z"/>
<path d="M1830 1030 c-14 -10 -21 -22 -17 -26 4 -4 20 4 35 19 31 31 19 36
-18 7z"/>
</g>
</svg>
